<svg width="25" height="25" viewBox="0 0 25 25" fill="none" xmlns="http://www.w3.org/2000/svg">
<circle cx="12.758" cy="12.0106" r="7.5" transform="rotate(-180 12.758 12.0106)" stroke="white"/>
<path d="M13.4207 13.9622C13.4207 13.706 13.4207 13.5534 13.4207 13.4008C13.4207 11.9705 13.4207 10.5392 13.4207 9.10892C13.4207 9.02538 13.4207 8.94184 13.4207 8.85941C13.414 8.34145 13.1607 8.01619 12.7607 8.01062C12.3597 8.00505 12.0886 8.33253 12.0875 8.84604C12.0842 10.4022 12.0864 11.9572 12.0864 13.5133C12.0864 13.6391 12.0864 13.7639 12.0864 13.97C11.3076 13.3451 10.6188 12.7859 9.92114 12.2356C9.53786 11.9326 9.18791 11.9471 8.92573 12.2546C8.65243 12.5754 8.70687 12.9374 9.10459 13.2593C10.15 14.107 11.201 14.9491 12.2542 15.7856C12.6374 16.0897 12.8685 16.0841 13.2596 15.7756C13.8484 15.3122 14.4294 14.8399 15.0149 14.371C15.4915 13.9889 15.9725 13.6124 16.4436 13.2248C16.7902 12.9385 16.848 12.5865 16.618 12.2757C16.3791 11.9538 16.0081 11.9248 15.627 12.2C15.5592 12.249 15.497 12.3047 15.4326 12.357C14.786 12.8728 14.1383 13.3896 13.4195 13.9633L13.4207 13.9622Z" fill="white"/>
</svg>
